<mxfile host="app.diagrams.net" modified="2023-05-22T23:30:57.399Z" agent="Mozilla/5.0 (X11; Linux x86_64) AppleWebKit/537.36 (KHTML, like Gecko) Chrome/111.0.0.0 Safari/537.36" etag="6OirMxKHHgAXiIor0q6r" version="21.3.2" type="device">
  <diagram name="Page-1" id="3gkPxpRs9dJpYHDTzal6">
    <mxGraphModel dx="1362" dy="704" grid="1" gridSize="10" guides="1" tooltips="1" connect="1" arrows="1" fold="1" page="1" pageScale="1" pageWidth="850" pageHeight="1100" math="0" shadow="0">
      <root>
        <mxCell id="0" />
        <mxCell id="1" parent="0" />
        <mxCell id="LjsdahdYEoKkIBhYWVfk-27" value="" style="rounded=1;whiteSpace=wrap;html=1;strokeColor=#E8E8E8;" vertex="1" parent="1">
          <mxGeometry x="140" y="200" width="40" height="210" as="geometry" />
        </mxCell>
        <mxCell id="LjsdahdYEoKkIBhYWVfk-28" value="" style="rounded=1;whiteSpace=wrap;html=1;strokeColor=#E8E8E8;" vertex="1" parent="1">
          <mxGeometry x="701" y="200" width="40" height="210" as="geometry" />
        </mxCell>
        <mxCell id="LjsdahdYEoKkIBhYWVfk-24" value="" style="rounded=1;whiteSpace=wrap;html=1;strokeColor=#E8E8E8;" vertex="1" parent="1">
          <mxGeometry x="110" y="100" width="660" height="60" as="geometry" />
        </mxCell>
        <mxCell id="LjsdahdYEoKkIBhYWVfk-23" value="" style="rounded=1;whiteSpace=wrap;html=1;strokeColor=#E8E8E8;" vertex="1" parent="1">
          <mxGeometry x="140" y="200" width="600" height="60" as="geometry" />
        </mxCell>
        <mxCell id="LjsdahdYEoKkIBhYWVfk-22" value="" style="rounded=1;whiteSpace=wrap;html=1;strokeColor=#E8E8E8;" vertex="1" parent="1">
          <mxGeometry x="140" y="310" width="600" height="100" as="geometry" />
        </mxCell>
        <mxCell id="LjsdahdYEoKkIBhYWVfk-21" value="" style="rounded=1;whiteSpace=wrap;html=1;strokeColor=#E8E8E8;" vertex="1" parent="1">
          <mxGeometry x="270" y="70" width="340" height="220" as="geometry" />
        </mxCell>
        <mxCell id="LjsdahdYEoKkIBhYWVfk-1" value="&lt;font style=&quot;font-size: 25px;&quot;&gt;DMA&lt;/font&gt;" style="rounded=1;whiteSpace=wrap;html=1;strokeColor=#0000CC;strokeWidth=3;" vertex="1" parent="1">
          <mxGeometry x="280" y="80" width="320" height="200" as="geometry" />
        </mxCell>
        <mxCell id="LjsdahdYEoKkIBhYWVfk-2" value="&lt;font style=&quot;font-size: 18px;&quot;&gt;ACC2&lt;/font&gt;" style="rounded=1;whiteSpace=wrap;html=1;strokeColor=#0000CC;strokeWidth=3;" vertex="1" parent="1">
          <mxGeometry x="280" y="320" width="120" height="80" as="geometry" />
        </mxCell>
        <mxCell id="LjsdahdYEoKkIBhYWVfk-3" value="&lt;font style=&quot;font-size: 18px;&quot;&gt;ACC1&lt;/font&gt;" style="rounded=1;whiteSpace=wrap;html=1;strokeColor=#0000CC;strokeWidth=3;" vertex="1" parent="1">
          <mxGeometry x="480" y="320" width="120" height="80" as="geometry" />
        </mxCell>
        <mxCell id="LjsdahdYEoKkIBhYWVfk-6" value="" style="endArrow=classic;html=1;rounded=0;exitX=1;exitY=0.75;exitDx=0;exitDy=0;entryX=1;entryY=0.5;entryDx=0;entryDy=0;strokeWidth=15;" edge="1" parent="1" source="LjsdahdYEoKkIBhYWVfk-1" target="LjsdahdYEoKkIBhYWVfk-3">
          <mxGeometry width="50" height="50" relative="1" as="geometry">
            <mxPoint x="400" y="420" as="sourcePoint" />
            <mxPoint x="450" y="370" as="targetPoint" />
            <Array as="points">
              <mxPoint x="720" y="230" />
              <mxPoint x="720" y="360" />
            </Array>
          </mxGeometry>
        </mxCell>
        <mxCell id="LjsdahdYEoKkIBhYWVfk-7" value="" style="endArrow=classic;html=1;rounded=0;exitX=0;exitY=0.5;exitDx=0;exitDy=0;entryX=1;entryY=0.5;entryDx=0;entryDy=0;strokeWidth=15;" edge="1" parent="1" source="LjsdahdYEoKkIBhYWVfk-3" target="LjsdahdYEoKkIBhYWVfk-2">
          <mxGeometry width="50" height="50" relative="1" as="geometry">
            <mxPoint x="400" y="420" as="sourcePoint" />
            <mxPoint x="450" y="370" as="targetPoint" />
          </mxGeometry>
        </mxCell>
        <mxCell id="LjsdahdYEoKkIBhYWVfk-8" value="" style="endArrow=classic;html=1;rounded=0;exitX=0;exitY=0.5;exitDx=0;exitDy=0;entryX=0;entryY=0.75;entryDx=0;entryDy=0;strokeWidth=15;" edge="1" parent="1" source="LjsdahdYEoKkIBhYWVfk-2" target="LjsdahdYEoKkIBhYWVfk-1">
          <mxGeometry width="50" height="50" relative="1" as="geometry">
            <mxPoint x="400" y="420" as="sourcePoint" />
            <mxPoint x="450" y="370" as="targetPoint" />
            <Array as="points">
              <mxPoint x="160" y="360" />
              <mxPoint x="160" y="230" />
            </Array>
          </mxGeometry>
        </mxCell>
        <mxCell id="LjsdahdYEoKkIBhYWVfk-9" value="" style="endArrow=classic;html=1;rounded=0;entryX=0;entryY=0.25;entryDx=0;entryDy=0;strokeWidth=15;" edge="1" parent="1" target="LjsdahdYEoKkIBhYWVfk-1">
          <mxGeometry width="50" height="50" relative="1" as="geometry">
            <mxPoint x="120" y="130" as="sourcePoint" />
            <mxPoint x="450" y="360" as="targetPoint" />
          </mxGeometry>
        </mxCell>
        <mxCell id="LjsdahdYEoKkIBhYWVfk-10" value="" style="endArrow=classic;html=1;rounded=0;exitX=1;exitY=0.25;exitDx=0;exitDy=0;strokeWidth=15;" edge="1" parent="1" source="LjsdahdYEoKkIBhYWVfk-1">
          <mxGeometry width="50" height="50" relative="1" as="geometry">
            <mxPoint x="400" y="410" as="sourcePoint" />
            <mxPoint x="760" y="130" as="targetPoint" />
          </mxGeometry>
        </mxCell>
        <mxCell id="LjsdahdYEoKkIBhYWVfk-13" value="AXI-Lite" style="rounded=0;whiteSpace=wrap;html=1;" vertex="1" parent="1">
          <mxGeometry x="150" y="120" width="60" height="20" as="geometry" />
        </mxCell>
        <mxCell id="LjsdahdYEoKkIBhYWVfk-14" value="AXI-Full" style="rounded=0;whiteSpace=wrap;html=1;" vertex="1" parent="1">
          <mxGeometry x="630" y="120" width="60" height="20" as="geometry" />
        </mxCell>
        <mxCell id="LjsdahdYEoKkIBhYWVfk-18" value="AXI-Stream" style="rounded=0;whiteSpace=wrap;html=1;" vertex="1" parent="1">
          <mxGeometry x="190" y="350" width="70" height="20" as="geometry" />
        </mxCell>
        <mxCell id="LjsdahdYEoKkIBhYWVfk-20" value="AXI-Stream" style="rounded=0;whiteSpace=wrap;html=1;" vertex="1" parent="1">
          <mxGeometry x="625" y="221" width="70" height="20" as="geometry" />
        </mxCell>
      </root>
    </mxGraphModel>
  </diagram>
</mxfile>
